HIERARCHY
ROOT Hips
{
	OFFSET -0.001795 -0.223333 0.028219
	CHANNELS 6 Xposition Yposition Zposition Zrotation Yrotation Xrotation 
	JOINT LeftUpLeg
	{
		OFFSET 0.069520 -0.091406 -0.006815
		CHANNELS 3 Zrotation Yrotation Xrotation
		JOINT LeftLeg
		{
			OFFSET 0.034277 -0.375199 -0.004496
			CHANNELS 3 Zrotation Yrotation Xrotation
			JOINT LeftFoot
			{
				OFFSET -0.013596 -0.397961 -0.043693
				CHANNELS 3 Zrotation Yrotation Xrotation
				JOINT LeftToe
				{
					OFFSET 0.026358 -0.055791 0.119288
					CHANNELS 3 Zrotation Yrotation Xrotation
					End Site
					{
						OFFSET 0.000000 0.000000 0.000000
					}
				}
			}
		}
	}
	JOINT RightUpLeg
	{
		OFFSET -0.067670 -0.090522 -0.004320
		CHANNELS 3 Zrotation Yrotation Xrotation
		JOINT RightLeg
		{
			OFFSET -0.038290 -0.382569 -0.008850
			CHANNELS 3 Zrotation Yrotation Xrotation
			JOINT RightFoot
			{
				OFFSET 0.015774 -0.398415 -0.042312
				CHANNELS 3 Zrotation Yrotation Xrotation
				JOINT RightToe
				{
					OFFSET -0.025372 -0.048144 0.123348
					CHANNELS 3 Zrotation Yrotation Xrotation
					End Site
					{
						OFFSET 0.000000 0.000000 0.000000
					}
				}
			}
		}
	}
	JOINT Spine
	{
		OFFSET -0.002533 0.108963 -0.026696
		CHANNELS 3 Zrotation Yrotation Xrotation
		JOINT Spine1
		{
			OFFSET 0.005487 0.135180 0.001092
			CHANNELS 3 Zrotation Yrotation Xrotation
			JOINT Spine2
			{
				OFFSET 0.001457 0.052922 0.025425
				CHANNELS 3 Zrotation Yrotation Xrotation
				JOINT Neck
				{
					OFFSET -0.002778 0.213870 -0.042857
					CHANNELS 3 Zrotation Yrotation Xrotation
					JOINT Head
					{
						OFFSET 0.005152 0.064970 0.051349
						CHANNELS 3 Zrotation Yrotation Xrotation
						End Site
						{
							OFFSET 0.000000 0.000000 0.000000
						}
					}
				}
				JOINT LeftShoulder
				{
					OFFSET 0.078845 0.121749 -0.034090
					CHANNELS 3 Zrotation Yrotation Xrotation
					JOINT LeftArm
					{
						OFFSET 0.090977 0.030469 -0.008868
						CHANNELS 3 Zrotation Yrotation Xrotation
						JOINT LeftForeArm
						{
							OFFSET 0.259612 -0.012772 -0.027456
							CHANNELS 3 Zrotation Yrotation Xrotation
							JOINT LeftHand
							{
								OFFSET 0.249234 0.008986 -0.001171
								CHANNELS 3 Zrotation Yrotation Xrotation
								End Site
								{
									OFFSET 0.000000 0.000000 0.000000
								}
							}
						}
					}
				}
				JOINT RightShoulder
				{
					OFFSET -0.081759 0.118833 -0.038615
					CHANNELS 3 Zrotation Yrotation Xrotation
					JOINT RightArm
					{
						OFFSET -0.096012 0.032551 -0.009143
						CHANNELS 3 Zrotation Yrotation Xrotation
						JOINT RightForeArm
						{
							OFFSET -0.253742 -0.013329 -0.021401
							CHANNELS 3 Zrotation Yrotation Xrotation
							JOINT RightHand
							{
								OFFSET -0.255298 0.007772 -0.005559
								CHANNELS 3 Zrotation Yrotation Xrotation
								End Site
								{
									OFFSET 0.000000 0.000000 0.000000
								}
							}
						}
					}
				}
			}
		}
	}
}
MOTION
Frames: 7
Frame Time: 0.050000
0.058782 0.978045 -0.034810 -0.442886 22.731292 1.976907 3.897705 -0.311543 -1.855836 -0.886764 0.091864 -1.918298 -7.597691 -0.295181 19.356961 0.000000 0.000000 0.000000 -8.289958 -0.558808 4.674005 4.709121 -0.785967 -7.439943 -4.319346 -10.755557 25.281325 0.000000 0.000000 0.000000 0.186939 -0.357184 6.878962 -12.607195 4.313818 -17.386295 -2.464030 24.337289 26.670188 23.932324 -7.514098 -25.604591 0.000000 0.000000 0.000000 -13.279676 -30.214528 4.327706 -53.506624 -30.988005 5.543750 27.704376 -24.148767 -8.695072 0.000000 0.000000 0.000000 14.800988 23.582711 19.488717 106.730029 61.406643 72.665930 -62.365623 64.518543 -29.386124 0.000000 0.000000 0.000000 
0.059320 0.978006 -0.035232 -0.439794 22.919269 2.050995 3.715715 -0.297899 -1.738941 -0.662175 0.088551 -2.267010 -7.636370 -0.377001 19.243945 0.000000 0.000000 0.000000 -8.270625 -0.562769 4.680400 4.701354 -0.789133 -7.534847 -4.494595 -10.990961 25.321855 0.000000 0.000000 0.000000 0.081298 -0.339982 6.722483 -12.523315 4.296837 -17.335140 -2.364697 24.279960 26.777943 23.828167 -7.437401 -25.578531 0.000000 0.000000 0.000000 -13.340395 -30.451280 4.398078 -53.049280 -31.180348 5.608398 27.147895 -23.549768 -8.316415 0.000000 0.000000 0.000000 14.592210 23.692598 19.439791 107.333057 61.564893 73.601941 -63.178015 63.812206 -29.554269 0.000000 0.000000 0.000000 
0.059886 0.978049 -0.035623 -0.499456 23.044651 2.163360 3.646769 -0.292853 -1.674757 -0.508085 0.087452 -2.552604 -7.659202 -0.525543 18.996689 0.000000 0.000000 0.000000 -8.280423 -0.566013 4.713817 4.723288 -0.798130 -7.801862 -4.434089 -10.877571 25.458010 0.000000 0.000000 0.000000 0.008908 -0.327081 6.594569 -12.550431 4.303469 -17.300808 -2.305284 24.152285 26.701274 23.817564 -7.424379 -25.597745 0.000000 0.000000 0.000000 -13.255941 -30.715773 4.545951 -52.598773 -31.556530 5.713330 26.778593 -22.365737 -7.822293 0.000000 0.000000 0.000000 14.460952 23.972149 19.515736 107.867481 61.859674 74.553854 -64.069312 62.996793 -29.702371 0.000000 0.000000 0.000000 
0.060512 0.978083 -0.035934 -0.502156 23.111674 2.227811 3.532499 -0.283028 -1.584631 -0.376018 0.089231 -2.914039 -7.730146 -0.509271 19.180321 0.000000 0.000000 0.000000 -8.320373 -0.568867 4.742938 4.705446 -0.799145 -7.910668 -4.384484 -10.789541 25.456507 0.000000 0.000000 0.000000 -0.059361 -0.309771 6.393715 -12.477058 4.295289 -17.195981 -2.348111 24.238345 26.672022 23.857583 -7.510411 -25.407618 0.000000 0.000000 0.000000 -13.186558 -31.148663 4.728676 -51.850785 -31.822208 5.750187 26.348316 -21.402594 -7.402547 0.000000 0.000000 0.000000 14.371189 24.102514 19.568447 108.515583 62.107502 75.604821 -65.274450 62.056609 -29.910237 0.000000 0.000000 0.000000 
0.061202 0.978011 -0.036228 -0.511247 23.161709 2.316157 3.476261 -0.278437 -1.536132 -0.288870 0.089927 -3.126021 -7.834845 -0.710479 19.084592 0.000000 0.000000 0.000000 -8.431301 -0.571532 4.774141 4.726879 -0.804745 -8.063741 -4.189703 -10.485691 25.463452 0.000000 0.000000 0.000000 -0.101603 -0.298202 6.248465 -12.527894 4.305417 -17.186265 -2.373303 24.191646 26.684972 23.832105 -7.520345 -25.337071 0.000000 0.000000 0.000000 -12.948913 -31.430021 4.914622 -51.379371 -32.249302 5.808742 25.889526 -20.360779 -6.950913 0.000000 0.000000 0.000000 14.046290 24.272159 19.468537 109.136859 62.280566 76.624467 -66.176433 61.169797 -29.992439 0.000000 0.000000 0.000000 
0.061913 0.977976 -0.036542 -0.498105 23.244816 2.275852 3.387182 -0.265454 -1.364622 -0.242981 0.092728 -3.378371 -7.887387 -0.733129 19.146270 0.000000 0.000000 0.000000 -8.587924 -0.584947 4.878481 4.688133 -0.802327 -8.078959 -3.872054 -9.986782 25.486794 0.000000 0.000000 0.000000 -0.176540 -0.286226 6.132262 -12.519992 4.325301 -16.978571 -2.521398 24.190905 26.502952 23.980283 -7.624579 -25.336033 0.000000 0.000000 0.000000 -12.908239 -31.762526 5.057533 -50.944515 -32.200616 5.777130 25.707036 -19.851800 -6.759636 0.000000 0.000000 0.000000 13.973406 24.392640 19.509289 109.579080 62.450632 77.347545 -66.996019 60.534528 -30.123441 0.000000 0.000000 0.000000 
0.062659 0.977883 -0.036894 -0.516254 23.270450 2.261464 3.293349 -0.251827 -1.188431 -0.199198 0.094975 -3.592895 -7.772295 -0.683843 18.931826 0.000000 0.000000 0.000000 -8.740692 -0.588102 4.866295 4.744328 -0.808608 -8.101102 -3.667881 -9.688214 25.721004 0.000000 0.000000 0.000000 -0.231216 -0.278687 6.061729 -12.516667 4.314993 -17.074733 -2.434834 24.159082 26.637555 23.978017 -7.585858 -25.434875 0.000000 0.000000 0.000000 -13.205930 -31.922560 5.060302 -50.850315 -31.951474 5.768143 25.576689 -19.759974 -6.687658 0.000000 0.000000 0.000000 13.789824 24.575802 19.492625 109.726727 62.598416 77.733903 -67.554206 60.082288 -30.204592 0.000000 0.000000 0.000000 
